<?xml version="1.0" encoding="UTF-8"?>
<!DOCTYPE svg PUBLIC "-//W3C//DTD SVG 1.1//EN" "http://www.w3.org/Graphics/SVG/1.1/DTD/svg11.dtd">
<svg xmlns="http://www.w3.org/2000/svg" version="1.1" width="85px" height="85px" style="shape-rendering:geometricPrecision; text-rendering:geometricPrecision; image-rendering:optimizeQuality; fill-rule:evenodd; clip-rule:evenodd" xmlns:xlink="http://www.w3.org/1999/xlink">
<g><path style="opacity:0.012" fill="#e1750f" d="M 16.5,8.5 C 36.6625,7.33745 56.9958,7.17078 77.5,8C 57.1694,8.49996 36.8361,8.66662 16.5,8.5 Z"/></g>
<g><path style="opacity:0.004" fill="#e0770f" d="M 14.5,10.5 C 15.8333,11.1667 15.8333,11.1667 14.5,10.5 Z"/></g>
<g><path style="opacity:0.884" fill="#e0750c" d="M 79.5,54.5 C 79.8084,58.3597 80.4751,62.0264 81.5,65.5C 81.7771,68.4475 81.4438,71.2809 80.5,74C 68.8333,74.6667 57.1667,74.6667 45.5,74C 44.6433,73.3109 43.9767,72.4776 43.5,71.5C 44.7072,67.2562 45.3739,62.9229 45.5,58.5C 46.4345,57.4324 46.7678,56.099 46.5,54.5C 47.0431,54.44 47.3764,54.1067 47.5,53.5C 46.3112,52.5713 44.9778,52.238 43.5,52.5C 39.2584,51.0324 34.7584,50.3657 30,50.5C 25.2416,50.3657 20.7416,51.0324 16.5,52.5C 14.901,52.2322 13.5676,52.5655 12.5,53.5C 11.5,53.5 10.5,53.5 9.5,53.5C 9.26269,54.791 9.59603,55.791 10.5,56.5C 10.595,58.7857 11.2616,60.7857 12.5,62.5C 12.2627,63.791 12.596,64.791 13.5,65.5C 13.6633,67.8568 13.4966,70.1902 13,72.5C 12.0053,73.0659 11.172,73.7326 10.5,74.5C 4.29137,75.2515 1.29137,72.5848 1.5,66.5C 2.73838,64.7857 3.40505,62.7857 3.5,60.5C 4.43433,59.2275 5.10099,57.7275 5.5,56C 4.54106,53.8801 4.3744,51.7135 5,49.5C 6.48131,48.5291 7.31465,47.1958 7.5,45.5C 9.02694,45.573 10.0269,44.9063 10.5,43.5C 13.2054,42.1473 15.8721,40.8139 18.5,39.5C 19.791,39.7373 20.791,39.404 21.5,38.5C 30.1384,37.6602 38.805,37.3268 47.5,37.5C 47.5,32.5 47.5,27.5 47.5,22.5C 37.1593,22.3514 26.826,22.0181 16.5,21.5C 16.5,17.5 16.5,13.5 16.5,9.5C 36.8443,9.16702 57.1776,9.50036 77.5,10.5C 78.1513,25.2945 78.818,39.9612 79.5,54.5 Z M 20.5,13.5 C 38.5,13.5 56.5,13.5 74.5,13.5C 74.5,15.1667 74.5,16.8333 74.5,18.5C 56.4886,18.6217 38.4886,18.2883 20.5,17.5C 20.5,16.1667 20.5,14.8333 20.5,13.5 Z M 51.5,23.5 C 58.9818,22.508 66.6484,22.1746 74.5,22.5C 74.5,26.1667 74.5,29.8333 74.5,33.5C 66.8333,33.5 59.1667,33.5 51.5,33.5C 51.5,30.5 51.5,27.5 51.5,24.5C 58.5,24.5 65.5,24.5 72.5,24.5C 72.3367,26.8568 72.5034,29.1902 73,31.5C 73.4974,28.854 73.6641,26.1873 73.5,23.5C 66.1667,23.5 58.8333,23.5 51.5,23.5 Z M 51.5,37.5 C 59.1667,37.5 66.8333,37.5 74.5,37.5C 74.5,43.1667 74.5,48.8333 74.5,54.5C 66.8333,54.5 59.1667,54.5 51.5,54.5C 51.5,48.8333 51.5,43.1667 51.5,37.5 Z M 27.5,42.5 C 33.979,41.5093 40.6457,41.176 47.5,41.5C 47.8076,43.924 47.4742,46.2573 46.5,48.5C 45.8933,48.3764 45.56,48.0431 45.5,47.5C 34.0962,45.9322 22.7629,46.2655 11.5,48.5C 12.6594,46.7497 14.326,45.7497 16.5,45.5C 18.4385,43.8372 20.7718,43.1706 23.5,43.5C 22.3915,44.29 21.0581,44.79 19.5,45C 25.8333,45.6667 32.1667,45.6667 38.5,45C 34.6437,44.8227 30.977,44.3227 27.5,43.5C 36.8333,43.1667 36.8333,42.8333 27.5,42.5 Z M 50.5,59.5 C 50.3379,61.5273 50.5045,63.5273 51,65.5C 51.4935,63.8659 51.6602,62.1992 51.5,60.5C 59.1667,60.5 66.8333,60.5 74.5,60.5C 75.0031,65.5 75.3364,65.1667 75.5,59.5C 76.5808,62.6267 77.2474,65.9601 77.5,69.5C 67.8333,69.5 58.1667,69.5 48.5,69.5C 48.2627,68.209 48.596,67.209 49.5,66.5C 49.1984,63.9407 49.5318,61.6074 50.5,59.5 Z M 8.5,66.5 C 7.83333,66.8333 7.16667,67.1667 6.5,67.5C 7.06579,63.1943 7.73245,62.861 8.5,66.5 Z M 8.5,66.5 C 9.40397,67.209 9.73731,68.209 9.5,69.5C 8.02218,69.762 6.68884,69.4287 5.5,68.5C 5.62358,67.8933 5.95691,67.56 6.5,67.5C 7.6226,68.7574 8.28927,68.4241 8.5,66.5 Z"/></g>
<g><path style="opacity:0.012" fill="#e0760e" d="M 21.5,14.5 C 38.8333,14.5 56.1667,14.5 73.5,14.5C 73.5,15.5 73.5,16.5 73.5,17.5C 60.4957,17.6666 47.4957,17.4999 34.5,17C 47.1667,16.6667 59.8333,16.3333 72.5,16C 56.9862,15.2385 41.4862,15.4051 26,16.5C 24.0145,16.4313 22.5145,15.7647 21.5,14.5 Z"/></g>
<g><path style="opacity:0.004" fill="#e17710" d="M 14.5,18.5 C 15.525,18.8966 15.6917,19.5632 15,20.5C 14.5357,19.9056 14.369,19.2389 14.5,18.5 Z"/></g>
<g><path style="opacity:0.004" fill="#e0760e" d="M 17.5,23.5 C 20.3035,22.3622 23.3035,22.1955 26.5,23C 23.5184,23.498 20.5184,23.6646 17.5,23.5 Z"/></g>
<g><path style="opacity:0.012" fill="#e0770d" d="M 38.5,24.5 C 40.9479,23.5269 43.6146,23.1936 46.5,23.5C 46.5,27.8333 46.5,32.1667 46.5,36.5C 40.4908,36.6662 34.4908,36.4995 28.5,36C 34.1569,35.5006 39.8236,35.3339 45.5,35.5C 45.5,31.8333 45.5,28.1667 45.5,24.5C 43.1667,24.5 40.8333,24.5 38.5,24.5 Z"/></g>
<g><path style="opacity:0.008" fill="#e0770d" d="M 21.5,37.5 C 22.6009,36.4017 23.9343,36.235 25.5,37C 24.2068,37.49 22.8734,37.6567 21.5,37.5 Z"/></g>
<g><path style="opacity:0.012" fill="#e07610" d="M 21.5,37.5 C 21.5,37.8333 21.5,38.1667 21.5,38.5C 18.8333,38.1667 18.8333,37.8333 21.5,37.5 Z"/></g>
<g><path style="opacity:0.004" fill="#e1760d" d="M 18.5,39.5 C 17.7611,39.631 17.0944,39.4643 16.5,39C 17.4368,38.3083 18.1034,38.475 18.5,39.5 Z"/></g>
<g><path style="opacity:0.004" fill="#e47910" d="M 52.5,39.5 C 59.3134,38.5088 66.3134,38.1755 73.5,38.5C 73.5,43.5 73.5,48.5 73.5,53.5C 66.4921,53.6663 59.4921,53.4996 52.5,53C 59.1583,52.5004 65.825,52.3337 72.5,52.5C 72.5,48.1667 72.5,43.8333 72.5,39.5C 65.8333,39.5 59.1667,39.5 52.5,39.5 Z"/></g>
<g><path style="opacity:0.008" fill="#df770c" d="M 10.5,41.5 C 11.8333,42.1667 11.8333,42.1667 10.5,41.5 Z"/></g>
<g><path style="opacity:0.008" fill="#e1790d" d="M 10.5,42.5 C 10.5,42.8333 10.5,43.1667 10.5,43.5C 9.82986,43.0187 9.82986,42.6853 10.5,42.5 Z"/></g>
<g><path style="opacity:0.007" fill="#e1750d" d="M 45.5,47.5 C 45.5,46.1667 45.5,44.8333 45.5,43.5C 40.5,42.9969 40.8333,42.6636 46.5,42.5C 46.7845,44.4147 46.4511,46.0813 45.5,47.5 Z"/></g>
<g><path style="opacity:0.004" fill="#e5760b" d="M 7.5,43.5 C 8.83333,44.1667 8.83333,44.1667 7.5,43.5 Z"/></g>
<g><path style="opacity:0.004" fill="#e0790b" d="M 7.5,44.5 C 7.5,44.8333 7.5,45.1667 7.5,45.5C 6.82986,45.0187 6.82986,44.6853 7.5,44.5 Z"/></g>
<g><path style="opacity:0.016" fill="#e0750d" d="M 23.5,43.5 C 24.8333,43.5 26.1667,43.5 27.5,43.5C 30.977,44.3227 34.6437,44.8227 38.5,45C 32.1667,45.6667 25.8333,45.6667 19.5,45C 21.0581,44.79 22.3915,44.29 23.5,43.5 Z"/></g>
<g><path style="opacity:0.004" fill="#dc760a" d="M 6.5,45.5 C 5.83333,46.1667 5.83333,46.1667 6.5,45.5 Z"/></g>
<g><path style="opacity:0.005" fill="#e1780d" d="M 2.5,50.5 C 3.59832,51.6009 3.76498,52.9343 3,54.5C 2.50999,53.2068 2.34332,51.8734 2.5,50.5 Z"/></g>
<g><path style="opacity:0.008" fill="#e1760d" d="M 22.5,52.5 C 27.3158,51.3503 32.3158,51.1837 37.5,52C 32.5111,52.4993 27.5111,52.6659 22.5,52.5 Z"/></g>
<g><path style="opacity:0.008" fill="#e1770e" d="M 16.5,53.5 C 16.5,53.1667 16.5,52.8333 16.5,52.5C 20.5,52.8333 20.5,53.1667 16.5,53.5 Z"/></g>
<g><path style="opacity:0.008" fill="#e0750d" d="M 43.5,52.5 C 42.7494,53.5735 41.7494,53.7401 40.5,53C 41.448,52.5172 42.448,52.3505 43.5,52.5 Z"/></g>
<g><path style="opacity:0.006" fill="#e0760e" d="M 12.5,53.5 C 13.8333,53.5 15.1667,53.5 16.5,53.5C 15.1667,54.8333 13.8333,54.8333 12.5,53.5 Z"/></g>
<g><path style="opacity:0.012" fill="#e1750d" d="M 46.5,54.5 C 45.7611,54.631 45.0944,54.4643 44.5,54C 45.4368,53.3083 46.1034,53.475 46.5,54.5 Z"/></g>
<g><path style="opacity:0.004" fill="#e17708" d="M 79.5,53.5 C 80.8333,54.1667 80.8333,54.1667 79.5,53.5 Z"/></g>
<g><path style="opacity:0.004" fill="#e0780f" d="M 10.5,56.5 C 10.369,55.7611 10.5357,55.0944 11,54.5C 11.6917,55.4368 11.525,56.1034 10.5,56.5 Z"/></g>
<g><path style="opacity:0.014" fill="#e1770e" d="M 45.5,58.5 C 45.1667,58.5 44.8333,58.5 44.5,58.5C 44.8333,54.5 45.1667,54.5 45.5,58.5 Z"/></g>
<g><path style="opacity:0.004" fill="#e3760f" d="M 80.5,55.5 C 81.525,55.8966 81.6917,56.5632 81,57.5C 80.5357,56.9056 80.369,56.2389 80.5,55.5 Z"/></g>
<g><path style="opacity:0.006" fill="#de770f" d="M 3.5,60.5 C 2.42654,59.7494 2.25988,58.7494 3,57.5C 3.48278,58.448 3.64945,59.448 3.5,60.5 Z"/></g>
<g><path style="opacity:0.004" fill="#df760d" d="M 50.5,59.5 C 58.8333,59.5 67.1667,59.5 75.5,59.5C 75.3364,65.1667 75.0031,65.5 74.5,60.5C 66.8333,60.5 59.1667,60.5 51.5,60.5C 51.6602,62.1992 51.4935,63.8659 51,65.5C 50.5045,63.5273 50.3379,61.5273 50.5,59.5 Z"/></g>
<g><path style="opacity:0.008" fill="#e0760d" d="M 12.5,62.5 C 12.3505,61.448 12.5172,60.448 13,59.5C 13.7401,60.7494 13.5735,61.7494 12.5,62.5 Z"/></g>
<g><path style="opacity:0.007" fill="#e1770e" d="M 44.5,58.5 C 44.6602,60.1992 44.4935,61.8659 44,63.5C 43.2204,61.6131 43.3871,59.9464 44.5,58.5 Z"/></g>
<g><path style="opacity:0.01" fill="#e1770d" d="M 82.5,65.5 C 82.1667,65.5 81.8333,65.5 81.5,65.5C 81.8333,58.8333 82.1667,58.8333 82.5,65.5 Z"/></g>
<g><path style="opacity:0.012" fill="#e0750f" d="M 1.5,66.5 C 1.16667,66.5 0.833333,66.5 0.5,66.5C 0.833333,62.5 1.16667,62.5 1.5,66.5 Z"/></g>
<g><path style="opacity:0.004" fill="#df7710" d="M 13.5,65.5 C 13.369,64.7611 13.5357,64.0944 14,63.5C 14.6917,64.4368 14.525,65.1034 13.5,65.5 Z"/></g>
<g><path style="opacity:0.004" fill="#e0760e" d="M 42.5,65.5 C 43.5983,66.6009 43.765,67.9343 43,69.5C 42.51,68.2068 42.3433,66.8734 42.5,65.5 Z"/></g>
<g><path style="opacity:0.004" fill="#e1750d" d="M -0.5,66.5 C -0.166667,66.5 0.166667,66.5 0.5,66.5C 0.784479,68.4147 0.451145,70.0813 -0.5,71.5C -0.5,69.8333 -0.5,68.1667 -0.5,66.5 Z"/></g>
<g><path style="opacity:0.02" fill="#df7710" d="M 8.5,66.5 C 8.28927,68.4241 7.6226,68.7574 6.5,67.5C 7.16667,67.1667 7.83333,66.8333 8.5,66.5 Z"/></g>
<g><path style="opacity:0.016" fill="#e27910" d="M 14.5,66.5 C 15.6129,67.9464 15.7796,69.6131 15,71.5C 14.5065,69.8659 14.3398,68.1992 14.5,66.5 Z"/></g>
<g><path style="opacity:0.008" fill="#e2760d" d="M 75.5,66.5 C 76.7733,67.0768 76.7733,67.7435 75.5,68.5C 74.537,68.0302 74.537,67.3635 75.5,66.5 Z"/></g>
<g><path style="opacity:0.008" fill="#df7610" d="M 82.5,65.5 C 83.6129,66.9464 83.7796,68.6131 83,70.5C 82.5065,68.8659 82.3398,67.1992 82.5,65.5 Z"/></g>
<g><path style="opacity:0.004" fill="#e17409" d="M 41.5,70.5 C 42.525,70.8966 42.6917,71.5632 42,72.5C 41.5357,71.9056 41.369,71.2389 41.5,70.5 Z"/></g>
<g><path style="opacity:0.004" fill="#db7b10" d="M 82.5,72.5 C 83.8333,73.1667 83.8333,73.1667 82.5,72.5 Z"/></g>
<g><path style="opacity:0.004" fill="#e3740f" d="M 3.5,74.5 C 4.83333,75.1667 4.83333,75.1667 3.5,74.5 Z"/></g>
<g><path style="opacity:0.004" fill="#da7813" d="M 10.5,74.5 C 11.8333,75.1667 11.8333,75.1667 10.5,74.5 Z"/></g>
<g><path style="opacity:0.004" fill="#e0750c" d="M 5.5,76.5 C 6.60093,75.4017 7.93426,75.235 9.5,76C 8.20677,76.49 6.87344,76.6567 5.5,76.5 Z"/></g>
<g><path style="opacity:0.004" fill="#e0750c" d="M 45.5,76.5 C 56.9927,75.3405 68.6593,75.1739 80.5,76C 68.8381,76.4999 57.1714,76.6665 45.5,76.5 Z"/></g>
</svg>
